<svg preserveAspectRatio="none" overflow="visible" style="display: block;" width="20" height="20" viewBox="0 0 20 20" fill="none" xmlns="http://www.w3.org/2000/svg">
<g id="Icon" clip-path="url(#clip0_0_6)">
<path id="Vector" d="M15.4167 0.833334C15.0851 0.833334 14.7672 0.96503 14.5328 1.19945C14.2984 1.43387 14.1667 1.75181 14.1667 2.08333V4.58333C14.1667 4.91485 14.2984 5.2328 14.5328 5.46722C14.7672 5.70164 15.0851 5.83333 15.4167 5.83333H17.9167C18.2482 5.83333 18.5661 5.70164 18.8005 5.46722C19.035 5.2328 19.1667 4.91485 19.1667 4.58333V2.08333C19.1667 1.75181 19.035 1.43387 18.8005 1.19945C18.5661 0.96503 18.2482 0.833334 17.9167 0.833334H15.4167ZM15.4167 7.5C15.0851 7.5 14.7672 7.6317 14.5328 7.86612C14.2984 8.10054 14.1667 8.41848 14.1667 8.75V11.25C14.1667 11.5815 14.2984 11.8995 14.5328 12.1339C14.7672 12.3683 15.0851 12.5 15.4167 12.5H17.9167C18.2482 12.5 18.5661 12.3683 18.8005 12.1339C19.035 11.8995 19.1667 11.5815 19.1667 11.25V8.75C19.1667 8.41848 19.035 8.10054 18.8005 7.86612C18.5661 7.6317 18.2482 7.5 17.9167 7.5H15.4167ZM2.08333 14.1667C1.75181 14.1667 1.43387 14.2984 1.19945 14.5328C0.96503 14.7672 0.833334 15.0851 0.833334 15.4167V17.9167C0.833334 18.2482 0.96503 18.5661 1.19945 18.8005C1.43387 19.035 1.75181 19.1667 2.08333 19.1667H4.58333C4.91485 19.1667 5.2328 19.035 5.46722 18.8005C5.70164 18.5661 5.83333 18.2482 5.83333 17.9167V15.4167C5.83333 15.0851 5.70164 14.7672 5.46722 14.5328C5.2328 14.2984 4.91485 14.1667 4.58333 14.1667H2.08333ZM8.75 14.1667C8.41848 14.1667 8.10054 14.2984 7.86612 14.5328C7.6317 14.7672 7.5 15.0851 7.5 15.4167V17.9167C7.5 18.2482 7.6317 18.5661 7.86612 18.8005C8.10054 19.035 8.41848 19.1667 8.75 19.1667H11.25C11.5815 19.1667 11.8995 19.035 12.1339 18.8005C12.3683 18.5661 12.5 18.2482 12.5 17.9167V15.4167C12.5 15.0851 12.3683 14.7672 12.1339 14.5328C11.8995 14.2984 11.5815 14.1667 11.25 14.1667H8.75ZM15.4167 14.1667C15.0851 14.1667 14.7672 14.2984 14.5328 14.5328C14.2984 14.7672 14.1667 15.0851 14.1667 15.4167V17.9167C14.1667 18.2482 14.2984 18.5661 14.5328 18.8005C14.7672 19.035 15.0851 19.1667 15.4167 19.1667H17.9167C18.2482 19.1667 18.5661 19.035 18.8005 18.8005C19.035 18.5661 19.1667 18.2482 19.1667 17.9167V15.4167C19.1667 15.0851 19.035 14.7672 18.8005 14.5328C18.5661 14.2984 18.2482 14.1667 17.9167 14.1667H15.4167ZM2.08333 7.5C1.75181 7.5 1.43387 7.6317 1.19945 7.86612C0.96503 8.10054 0.833334 8.41848 0.833334 8.75V11.25C0.833334 11.5815 0.96503 11.8995 1.19945 12.1339C1.43387 12.3683 1.75181 12.5 2.08333 12.5H4.58333C4.91485 12.5 5.2328 12.3683 5.46722 12.1339C5.70164 11.8995 5.83333 11.5815 5.83333 11.25V8.75C5.83333 8.41848 5.70164 8.10054 5.46722 7.86612C5.2328 7.6317 4.91485 7.5 4.58333 7.5H2.08333ZM2.08333 0.833334C1.75181 0.833334 1.43387 0.96503 1.19945 1.19945C0.96503 1.43387 0.833334 1.75181 0.833334 2.08333V4.58333C0.833334 4.91485 0.96503 5.2328 1.19945 5.46722C1.43387 5.70164 1.75181 5.83333 2.08333 5.83333H4.58333C4.91485 5.83333 5.2328 5.70164 5.46722 5.46722C5.70164 5.2328 5.83333 4.91485 5.83333 4.58333V2.08333C5.83333 1.75181 5.70164 1.43387 5.46722 1.19945C5.2328 0.96503 4.91485 0.833334 4.58333 0.833334H2.08333ZM8.75 0.833334C8.41848 0.833334 8.10054 0.96503 7.86612 1.19945C7.6317 1.43387 7.5 1.75181 7.5 2.08333V4.58333C7.5 4.91485 7.6317 5.2328 7.86612 5.46722C8.10054 5.70164 8.41848 5.83333 8.75 5.83333H11.25C11.5815 5.83333 11.8995 5.70164 12.1339 5.46722C12.3683 5.2328 12.5 4.91485 12.5 4.58333V2.08333C12.5 1.75181 12.3683 1.43387 12.1339 1.19945C11.8995 0.96503 11.5815 0.833334 11.25 0.833334H8.75ZM8.75 7.5C8.41848 7.5 8.10054 7.6317 7.86612 7.86612C7.6317 8.10054 7.5 8.41848 7.5 8.75V11.25C7.5 11.5815 7.6317 11.8995 7.86612 12.1339C8.10054 12.3683 8.41848 12.5 8.75 12.5H11.25C11.5815 12.5 11.8995 12.3683 12.1339 12.1339C12.3683 11.8995 12.5 11.5815 12.5 11.25V8.75C12.5 8.41848 12.3683 8.10054 12.1339 7.86612C11.8995 7.6317 11.5815 7.5 11.25 7.5H8.75Z" fill="#6E6986"/>
</g>
<defs>
<clipPath id="clip0_0_6">
<rect width="20" height="20" fill="white"/>
</clipPath>
</defs>
</svg>
